<?xml version="1.0" encoding="UTF-8" standalone="no"?>
<!-- Created with Inkscape (http://www.inkscape.org/) -->

<svg
   xmlns:dc="http://purl.org/dc/elements/1.1/"
   xmlns:cc="http://creativecommons.org/ns#"
   xmlns:rdf="http://www.w3.org/1999/02/22-rdf-syntax-ns#"
   xmlns:svg="http://www.w3.org/2000/svg"
   xmlns="http://www.w3.org/2000/svg"
   xmlns:sodipodi="http://sodipodi.sourceforge.net/DTD/sodipodi-0.dtd"
   xmlns:inkscape="http://www.inkscape.org/namespaces/inkscape"
   width="12"
   height="12"
   id="svg2"
   version="1.1"
   inkscape:version="0.48.2 r9819"
   sodipodi:docname="ignore_block.svg">
  <defs
     id="defs4" />
  <sodipodi:namedview
     id="base"
     pagecolor="#ffffff"
     bordercolor="#666666"
     borderopacity="1.0"
     inkscape:pageopacity="0.0"
     inkscape:pageshadow="2"
     inkscape:zoom="44.8"
     inkscape:cx="5.0307645"
     inkscape:cy="7.7890103"
     inkscape:document-units="px"
     inkscape:current-layer="layer1"
     showgrid="false"
     inkscape:window-width="1244"
     inkscape:window-height="1187"
     inkscape:window-x="1251"
     inkscape:window-y="0"
     inkscape:window-maximized="0" />
  <metadata
     id="metadata7">
    <rdf:RDF>
      <cc:Work
         rdf:about="">
        <dc:format>image/svg+xml</dc:format>
        <dc:type
           rdf:resource="http://purl.org/dc/dcmitype/StillImage" />
      </cc:Work>
    </rdf:RDF>
  </metadata>
  <g
     inkscape:label="Layer 1"
     inkscape:groupmode="layer"
     id="layer1"
     transform="translate(0,-1040.3622)">
    <path
       style="fill:#999999;fill-opacity:1;stroke:#999999;stroke-width:0.959;stroke-opacity:1;stroke-miterlimit:4;stroke-dasharray:none"
       d="M 6.03125 0.5 C 2.9834551 0.5 0.5 2.9883584 0.5 6.03125 C 0.5 9.0741416 2.9834551 11.53125 6.03125 11.53125 C 9.0790449 11.53125 11.53125 9.0741416 11.53125 6.03125 C 11.53125 2.9883584 9.0790449 0.5 6.03125 0.5 z M 6.03125 1.25 C 8.6714814 1.25 10.8125 3.3910186 10.8125 6.03125 C 10.8125 7.0213368 10.515582 7.9556464 10 8.71875 L 2.84375 2.65625 L 2.5625 2.75 C 3.4340961 1.828616 4.6630946 1.25 6.03125 1.25 z M 1.9375 3.59375 L 8.71875 9.34375 L 9.78125 8.96875 C 8.906 10.086542 7.5607095 10.8125 6.03125 10.8125 C 3.3910186 10.8125 1.25 8.6714814 1.25 6.03125 C 1.25 5.1410802 1.5136668 4.3075009 1.9375 3.59375 z "
       transform="translate(0,1040.3622)"
       id="path2989" />
  </g>
</svg>
