<?xml version="1.0" encoding="UTF-8" standalone="no"?>
<!-- Created with Inkscape (http://www.inkscape.org/) -->

<svg
   xmlns:dc="http://purl.org/dc/elements/1.1/"
   xmlns:cc="http://creativecommons.org/ns#"
   xmlns:rdf="http://www.w3.org/1999/02/22-rdf-syntax-ns#"
   xmlns:svg="http://www.w3.org/2000/svg"
   xmlns="http://www.w3.org/2000/svg"
   version="1.1"
   width="12"
   height="12"
   id="svg2">
  <defs
     id="defs4" />
  <metadata
     id="metadata7">
    <rdf:RDF>
      <cc:Work
         rdf:about="">
        <dc:format>image/svg+xml</dc:format>
        <dc:type
           rdf:resource="http://purl.org/dc/dcmitype/StillImage" />
        <dc:title></dc:title>
      </cc:Work>
    </rdf:RDF>
  </metadata>
  <g
     transform="translate(0,-1040.3622)"
     id="layer1">
    <path
       d="M 6.03125,0.5 C 2.9834551,0.5 0.5,2.9883584 0.5,6.03125 c 0,3.0428916 2.4834551,5.5 5.53125,5.5 3.0477949,0 5.5,-2.4571084 5.5,-5.5 C 11.53125,2.9883584 9.0790449,0.5 6.03125,0.5 z M 2.75,4.28125 l 6.5625,0 c 0.969583,0 1.75,0.7804171 1.75,1.75 0,0.9695829 -0.780417,1.75 -1.75,1.75 l -6.5625,0 c -0.9695829,0 -1.75,-0.7804171 -1.75,-1.75 0,-0.9695829 0.7804171,-1.75 1.75,-1.75 z"
       transform="translate(0,1040.3622)"
       id="path2989"
       style="fill:#999999;fill-opacity:1;stroke:#999999;stroke-width:0.95944774;stroke-opacity:1" />
  </g>
</svg>
